<svg xmlns="http://www.w3.org/2000/svg" xmlns:xlink="http://www.w3.org/1999/xlink" viewBox="0,0,256,256" width="100px" height="100px" fill-rule="nonzero"><g fill="#4caf50" fill-rule="nonzero" stroke="none" stroke-width="1" stroke-linecap="butt" stroke-linejoin="miter" stroke-miterlimit="10" stroke-dasharray="" stroke-dashoffset="0" font-family="none" font-weight="none" font-size="none" text-anchor="none" style="mix-blend-mode: normal"><g transform="scale(4,4)"><path d="M19.92578,4.45898c-0.12891,0.01597 -0.2555,0.05795 -0.375,0.12695c-0.478,0.276 -0.64319,0.88723 -0.36719,1.36523l2.68945,4.6582c-3.45074,2.73959 -5.89874,6.80214 -6.62695,11.39063h33.57422c-0.63375,-4.69499 -3.0921,-8.7927 -6.62109,-11.51367l2.61719,-4.53516c0.276,-0.478 0.11081,-1.08923 -0.36719,-1.36523c-0.478,-0.276 -1.08924,-0.11277 -1.36523,0.36523l-2.55078,4.41797c-2.42063,-1.44629 -5.21465,-2.30781 -8.20898,-2.36523c-3.21465,-0.06145 -6.23025,0.84124 -8.81445,2.43945l-2.59375,-4.49219c-0.207,-0.3585 -0.60352,-0.54009 -0.99023,-0.49219zM24.5,14c0.828,0 1.5,0.672 1.5,1.5c0,0.828 -0.672,1.5 -1.5,1.5c-0.828,0 -1.5,-0.672 -1.5,-1.5c0,-0.828 0.672,-1.5 1.5,-1.5zM39.5,14c0.828,0 1.5,0.672 1.5,1.5c0,0.828 -0.672,1.5 -1.5,1.5c-0.828,0 -1.5,-0.672 -1.5,-1.5c0,-0.828 0.672,-1.5 1.5,-1.5zM15.03906,24.05469c-0.012,0.266 -0.03906,0.52887 -0.03906,0.79687v21.05469c0,2.26 1.791,4.09375 4,4.09375h3v6.5c0,1.381 1.119,2.5 2.5,2.5c1.381,0 2.5,-1.119 2.5,-2.5v-6.5h10v6.5c0,1.381 1.119,2.5 2.5,2.5c1.381,0 2.5,-1.119 2.5,-2.5v-6.5h3c2.209,0 4,-1.83375 4,-4.09375v-20.95898zM9.5,25c-1.381,0 -2.5,1.119 -2.5,2.5v8c0,1.381 1.119,2.5 2.5,2.5c1.381,0 2.5,-1.119 2.5,-2.5v-8c0,-1.381 -1.119,-2.5 -2.5,-2.5zM54.5,25c-1.381,0 -2.5,1.119 -2.5,2.5v8c0,1.381 1.119,2.5 2.5,2.5c1.381,0 2.5,-1.119 2.5,-2.5v-8c0,-1.381 -1.119,-2.5 -2.5,-2.5z"></path></g></g></svg>