<?xml version="1.0" encoding="UTF-8"?>
<svg xmlns="http://www.w3.org/2000/svg" xmlns:xlink="http://www.w3.org/1999/xlink" viewBox="0 0 50 50" width="50px" height="50px">
<g id="surface86653013">
<path style=" stroke:none;fill-rule:nonzero;fill:rgb(29.803923%,68.627453%,31.37255%);fill-opacity:1;" d="M 4 4 L 4 10 C 3.996094 10.359375 4.183594 10.695312 4.496094 10.878906 C 4.808594 11.058594 5.191406 11.058594 5.503906 10.878906 C 5.816406 10.695312 6.003906 10.359375 6 10 L 6 6 L 10 6 C 10.359375 6.003906 10.695312 5.816406 10.878906 5.503906 C 11.058594 5.191406 11.058594 4.808594 10.878906 4.496094 C 10.695312 4.183594 10.359375 3.996094 10 4 Z M 40 4 C 39.640625 3.996094 39.304688 4.183594 39.121094 4.496094 C 38.941406 4.808594 38.941406 5.191406 39.121094 5.503906 C 39.304688 5.816406 39.640625 6.003906 40 6 L 44 6 L 44 10 C 43.996094 10.359375 44.183594 10.695312 44.496094 10.878906 C 44.808594 11.058594 45.191406 11.058594 45.503906 10.878906 C 45.816406 10.695312 46.003906 10.359375 46 10 L 46 4 Z M 27.984375 9.988281 C 27.9375 9.988281 27.886719 9.992188 27.839844 10 L 13 10 L 13 31 L 5 31 C 4.640625 30.996094 4.304688 31.183594 4.121094 31.496094 C 3.941406 31.808594 3.941406 32.191406 4.121094 32.503906 C 4.304688 32.816406 4.640625 33.003906 5 33 L 13.832031 33 C 13.941406 33.019531 14.050781 33.019531 14.160156 33 L 35.832031 33 C 35.941406 33.019531 36.050781 33.019531 36.160156 33 L 45 33 C 45.359375 33.003906 45.695312 32.816406 45.878906 32.503906 C 46.058594 32.191406 46.058594 31.808594 45.878906 31.496094 C 45.695312 31.183594 45.359375 30.996094 45 31 L 37 31 L 37 19.167969 C 37.019531 19.058594 37.019531 18.949219 37 18.839844 L 37 18.585938 L 36.808594 18.394531 C 36.753906 18.320312 36.6875 18.257812 36.617188 18.203125 L 28.792969 10.378906 C 28.738281 10.304688 28.675781 10.242188 28.605469 10.191406 L 28.414062 10 L 28.15625 10 C 28.097656 9.992188 28.042969 9.984375 27.984375 9.988281 Z M 15 12 L 27 12 L 27 20 L 35 20 L 35 31 L 15 31 Z M 29 13.414062 L 33.585938 18 L 29 18 Z M 19 23 L 19 25 L 31 25 L 31 23 Z M 19 27 L 19 29 L 31 29 L 31 27 Z M 13 35 L 13 40 L 37 40 L 37 35 L 35 35 L 35 38 L 15 38 L 15 35 Z M 4.984375 38.988281 C 4.433594 38.996094 3.992188 39.449219 4 40 L 4 46 L 10 46 C 10.359375 46.003906 10.695312 45.816406 10.878906 45.503906 C 11.058594 45.191406 11.058594 44.808594 10.878906 44.496094 C 10.695312 44.183594 10.359375 43.996094 10 44 L 6 44 L 6 40 C 6.003906 39.730469 5.898438 39.46875 5.707031 39.277344 C 5.515625 39.085938 5.253906 38.980469 4.984375 38.988281 Z M 44.984375 38.988281 C 44.433594 38.996094 43.992188 39.449219 44 40 L 44 44 L 40 44 C 39.640625 43.996094 39.304688 44.183594 39.121094 44.496094 C 38.941406 44.808594 38.941406 45.191406 39.121094 45.503906 C 39.304688 45.816406 39.640625 46.003906 40 46 L 46 46 L 46 40 C 46.003906 39.730469 45.898438 39.46875 45.707031 39.277344 C 45.515625 39.085938 45.253906 38.980469 44.984375 38.984375 Z M 44.984375 38.988281 "/>
</g>
</svg>
