<?xml version="1.0" encoding="UTF-8"?>
<svg xmlns="http://www.w3.org/2000/svg" xmlns:xlink="http://www.w3.org/1999/xlink" viewBox="0 0 50 50" width="50px" height="50px">
<g id="surface86681109">
<path style=" stroke:none;fill-rule:nonzero;fill:rgb(29.803923%,68.627453%,31.37255%);fill-opacity:1;" d="M 25 1 C 18.363281 1 13 6.363281 13 13 L 13 18 L 9 18 C 7.355469 18 6 19.355469 6 21 L 6 45 C 6 46.644531 7.355469 48 9 48 L 41 48 C 42.644531 48 44 46.644531 44 45 L 44 21 C 44 19.355469 42.644531 18 41 18 L 37 18 L 37 13 C 37 6.363281 31.636719 1 25 1 Z M 25 3 C 30.566406 3 35 7.433594 35 13 L 35 18 L 15 18 L 15 13 C 15 7.433594 19.433594 3 25 3 Z M 9 20 L 41 20 C 41.554688 20 42 20.445312 42 21 L 42 45 C 42 45.554688 41.554688 46 41 46 L 9 46 C 8.445312 46 8 45.554688 8 45 L 8 21 C 8 20.445312 8.445312 20 9 20 Z M 25 25 C 20.59375 25 17 28.59375 17 33 C 17 37.40625 20.59375 41 25 41 C 29.40625 41 33 37.40625 33 33 C 33 28.59375 29.40625 25 25 25 Z M 25 27 C 28.324219 27 31 29.675781 31 33 C 31 36.324219 28.324219 39 25 39 C 21.675781 39 19 36.324219 19 33 C 19 29.675781 21.675781 27 25 27 Z M 25 29 C 22.800781 29 21 30.800781 21 33 C 21 35.199219 22.800781 37 25 37 C 27.199219 37 29 35.199219 29 33 C 29 32.601562 28.914062 32.210938 28.8125 31.8125 C 28.511719 32.511719 27.800781 33 27 33 C 25.898438 33 25 32.101562 25 31 C 25 30.199219 25.488281 29.488281 26.1875 29.1875 C 25.789062 29.085938 25.398438 29 25 29 Z M 25 29 "/>
</g>
</svg>
